<mxfile host="app.diagrams.net" modified="2024-03-24T02:47:23.497Z" agent="Mozilla/5.0 (Windows NT 10.0; Win64; x64) AppleWebKit/537.36 (KHTML, like Gecko) Chrome/122.0.0.0 Safari/537.36" etag="ccqe_9Hw7t6Ub8WLAiSh" version="24.1.0" type="github">
  <diagram name="Main" id="jrsYXLbPBY0B7HWtTwxl">
    <mxGraphModel dx="1434" dy="738" grid="1" gridSize="10" guides="1" tooltips="1" connect="1" arrows="1" fold="1" page="1" pageScale="1" pageWidth="1169" pageHeight="827" math="0" shadow="0">
      <root>
        <mxCell id="0" />
        <mxCell id="1" parent="0" />
        <mxCell id="JT6zEs1MwmiMcGA5Ooht-4" value="" style="rounded=0;whiteSpace=wrap;html=1;fillColor=none;strokeColor=#FFB570;dashed=1;strokeWidth=3;" vertex="1" parent="1">
          <mxGeometry x="20" y="150" width="1120" height="660" as="geometry" />
        </mxCell>
        <mxCell id="JT6zEs1MwmiMcGA5Ooht-2" value="" style="rounded=0;whiteSpace=wrap;html=1;fillColor=none;strokeColor=#6c8ebf;dashed=1;strokeWidth=3;" vertex="1" parent="1">
          <mxGeometry x="40" y="200" width="1080" height="590" as="geometry" />
        </mxCell>
        <mxCell id="JT6zEs1MwmiMcGA5Ooht-3" value="rg-nw-&amp;lt;env&amp;gt;-edp" style="image;sketch=0;aspect=fixed;html=1;points=[];align=left;fontSize=12;image=img/lib/mscae/ResourceGroup.svg;labelPosition=right;verticalLabelPosition=middle;verticalAlign=middle;labelBackgroundColor=none;" vertex="1" parent="1">
          <mxGeometry x="50" y="210" width="25" height="20" as="geometry" />
        </mxCell>
        <mxCell id="JT6zEs1MwmiMcGA5Ooht-5" value="NW-TEST" style="verticalLabelPosition=middle;html=1;verticalAlign=middle;align=left;strokeColor=none;fillColor=#00BEF2;shape=mxgraph.azure.azure_subscription;labelPosition=right;" vertex="1" parent="1">
          <mxGeometry x="29" y="160" width="35" height="25" as="geometry" />
        </mxCell>
        <mxCell id="JT6zEs1MwmiMcGA5Ooht-6" value="" style="rounded=0;whiteSpace=wrap;html=1;fillColor=none;strokeColor=#82b366;dashed=1;strokeWidth=2;" vertex="1" parent="1">
          <mxGeometry x="80" y="240" width="1000" height="280" as="geometry" />
        </mxCell>
        <mxCell id="JT6zEs1MwmiMcGA5Ooht-7" value="vnet-nw-&amp;lt;env&amp;gt;-edp-core" style="image;aspect=fixed;html=1;points=[];align=left;fontSize=12;image=img/lib/azure2/networking/Virtual_Networks.svg;labelBackgroundColor=none;labelPosition=right;verticalLabelPosition=middle;verticalAlign=middle;" vertex="1" parent="1">
          <mxGeometry x="85" y="250" width="33.5" height="20" as="geometry" />
        </mxCell>
        <mxCell id="JT6zEs1MwmiMcGA5Ooht-9" value="" style="rounded=0;whiteSpace=wrap;html=1;fillColor=none;strokeColor=#82b366;dashed=1;strokeWidth=2;" vertex="1" parent="1">
          <mxGeometry x="120" y="282" width="920" height="98" as="geometry" />
        </mxCell>
        <mxCell id="JT6zEs1MwmiMcGA5Ooht-8" value="snet-nw-&amp;lt;env&amp;gt;-edp-store [10.132.10.0 - 10.132.10.255]" style="image;aspect=fixed;html=1;points=[];align=left;fontSize=12;image=img/lib/azure2/networking/Subnet.svg;labelPosition=right;verticalLabelPosition=middle;verticalAlign=middle;labelBackgroundColor=none;" vertex="1" parent="1">
          <mxGeometry x="126.5" y="291" width="35.06" height="21" as="geometry" />
        </mxCell>
        <mxCell id="JT6zEs1MwmiMcGA5Ooht-10" value="sanw&amp;lt;env&amp;gt;edpland01" style="image;aspect=fixed;html=1;points=[];align=center;fontSize=12;image=img/lib/azure2/storage/Storage_Accounts.svg;labelBackgroundColor=none;" vertex="1" parent="1">
          <mxGeometry x="328" y="315" width="45" height="36" as="geometry" />
        </mxCell>
        <mxCell id="JT6zEs1MwmiMcGA5Ooht-11" value="&lt;span style=&quot;color: rgb(0, 0, 0); font-family: Helvetica; font-size: 12px; font-style: normal; font-variant-ligatures: normal; font-variant-caps: normal; font-weight: 400; letter-spacing: normal; orphans: 2; text-align: center; text-indent: 0px; text-transform: none; widows: 2; word-spacing: 0px; -webkit-text-stroke-width: 0px; white-space: nowrap; text-decoration-thickness: initial; text-decoration-style: initial; text-decoration-color: initial; float: none; display: inline !important;&quot;&gt;sanw&amp;lt;env&amp;gt;edplake01&lt;/span&gt;" style="image;aspect=fixed;html=1;points=[];align=center;fontSize=12;image=img/lib/azure2/storage/Storage_Accounts.svg;labelBackgroundColor=none;" vertex="1" parent="1">
          <mxGeometry x="475" y="315" width="45" height="36" as="geometry" />
        </mxCell>
        <mxCell id="JT6zEs1MwmiMcGA5Ooht-14" value="&lt;span style=&quot;color: rgb(0, 0, 0); font-family: Helvetica; font-size: 12px; font-style: normal; font-variant-ligatures: normal; font-variant-caps: normal; font-weight: 400; letter-spacing: normal; orphans: 2; text-align: center; text-indent: 0px; text-transform: none; widows: 2; word-spacing: 0px; -webkit-text-stroke-width: 0px; white-space: nowrap; text-decoration-thickness: initial; text-decoration-style: initial; text-decoration-color: initial; float: none; display: inline !important;&quot;&gt;sanw&amp;lt;env&amp;gt;edpconfig01&lt;/span&gt;" style="image;aspect=fixed;html=1;points=[];align=center;fontSize=12;image=img/lib/azure2/storage/Storage_Accounts.svg;labelBackgroundColor=none;" vertex="1" parent="1">
          <mxGeometry x="621" y="315" width="45" height="36" as="geometry" />
        </mxCell>
        <mxCell id="JT6zEs1MwmiMcGA5Ooht-15" value="&lt;span style=&quot;color: rgb(0, 0, 0); font-family: Helvetica; font-size: 12px; font-style: normal; font-variant-ligatures: normal; font-variant-caps: normal; font-weight: 400; letter-spacing: normal; orphans: 2; text-align: center; text-indent: 0px; text-transform: none; widows: 2; word-spacing: 0px; -webkit-text-stroke-width: 0px; white-space: nowrap; text-decoration-thickness: initial; text-decoration-style: initial; text-decoration-color: initial; float: none; display: inline !important;&quot;&gt;sanw&amp;lt;env&amp;gt;edplogs01&lt;/span&gt;" style="image;aspect=fixed;html=1;points=[];align=center;fontSize=12;image=img/lib/azure2/storage/Storage_Accounts.svg;labelBackgroundColor=none;" vertex="1" parent="1">
          <mxGeometry x="768" y="315" width="45" height="36" as="geometry" />
        </mxCell>
        <mxCell id="JT6zEs1MwmiMcGA5Ooht-25" value="" style="rounded=0;whiteSpace=wrap;html=1;fillColor=none;strokeColor=#d79b00;dashed=1;strokeWidth=2;" vertex="1" parent="1">
          <mxGeometry x="80" y="600" width="480" height="170" as="geometry" />
        </mxCell>
        <mxCell id="JT6zEs1MwmiMcGA5Ooht-28" style="edgeStyle=orthogonalEdgeStyle;rounded=0;orthogonalLoop=1;jettySize=auto;html=1;strokeWidth=2;strokeColor=#6666FF;" edge="1" parent="1" source="JT6zEs1MwmiMcGA5Ooht-26" target="JT6zEs1MwmiMcGA5Ooht-27">
          <mxGeometry relative="1" as="geometry" />
        </mxCell>
        <mxCell id="JT6zEs1MwmiMcGA5Ooht-26" value="vnet-nw-&amp;lt;env&amp;gt;-edp-dbw" style="image;aspect=fixed;html=1;points=[];align=left;fontSize=12;image=img/lib/azure2/networking/Virtual_Networks.svg;labelBackgroundColor=none;labelPosition=right;verticalLabelPosition=middle;verticalAlign=middle;" vertex="1" parent="1">
          <mxGeometry x="85" y="610" width="33.5" height="20" as="geometry" />
        </mxCell>
        <mxCell id="JT6zEs1MwmiMcGA5Ooht-29" style="edgeStyle=orthogonalEdgeStyle;rounded=0;orthogonalLoop=1;jettySize=auto;html=1;strokeWidth=2;strokeColor=#6666FF;" edge="1" parent="1" source="JT6zEs1MwmiMcGA5Ooht-27" target="JT6zEs1MwmiMcGA5Ooht-7">
          <mxGeometry relative="1" as="geometry" />
        </mxCell>
        <mxCell id="JT6zEs1MwmiMcGA5Ooht-27" value="peer-nw-&amp;lt;env&amp;gt;-edp-dbw-core" style="image;aspect=fixed;html=1;points=[];align=left;fontSize=12;image=img/lib/azure2/other/Peering_Service.svg;labelPosition=right;verticalLabelPosition=middle;verticalAlign=middle;labelBackgroundColor=none;" vertex="1" parent="1">
          <mxGeometry x="80" y="548.12" width="30" height="30.44" as="geometry" />
        </mxCell>
        <mxCell id="JT6zEs1MwmiMcGA5Ooht-32" value="dbw-nw-&amp;lt;env&amp;gt;-edp-core" style="image;sketch=0;aspect=fixed;html=1;points=[];align=center;fontSize=12;image=img/lib/mscae/Databricks.svg;labelBackgroundColor=none;" vertex="1" parent="1">
          <mxGeometry x="280" y="661" width="50" height="48" as="geometry" />
        </mxCell>
        <mxCell id="JT6zEs1MwmiMcGA5Ooht-33" value="" style="rounded=0;whiteSpace=wrap;html=1;fillColor=none;strokeColor=#82b366;dashed=1;strokeWidth=2;" vertex="1" parent="1">
          <mxGeometry x="120" y="400" width="920" height="98" as="geometry" />
        </mxCell>
        <mxCell id="JT6zEs1MwmiMcGA5Ooht-34" value="snet-nw-&amp;lt;env&amp;gt;-edp-ingest[10.132.12.0 - 10.132.12.255]" style="image;aspect=fixed;html=1;points=[];align=left;fontSize=12;image=img/lib/azure2/networking/Subnet.svg;labelPosition=right;verticalLabelPosition=middle;verticalAlign=middle;labelBackgroundColor=none;" vertex="1" parent="1">
          <mxGeometry x="126.5" y="414" width="35.06" height="21" as="geometry" />
        </mxCell>
        <mxCell id="JT6zEs1MwmiMcGA5Ooht-35" value="vmnw&amp;lt;env&amp;gt;shir0X" style="image;aspect=fixed;html=1;points=[];align=center;fontSize=12;image=img/lib/azure2/compute/Virtual_Machine.svg;labelBackgroundColor=none;" vertex="1" parent="1">
          <mxGeometry x="582" y="430" width="39" height="36.17" as="geometry" />
        </mxCell>
        <mxCell id="JT6zEs1MwmiMcGA5Ooht-37" value="adf-nw-&amp;lt;dev&amp;gt;-edp-core" style="image;aspect=fixed;html=1;points=[];align=center;fontSize=12;image=img/lib/azure2/databases/Data_Factory.svg;labelBackgroundColor=none;labelPosition=center;verticalLabelPosition=bottom;verticalAlign=top;" vertex="1" parent="1">
          <mxGeometry x="840" y="659" width="50" height="50" as="geometry" />
        </mxCell>
      </root>
    </mxGraphModel>
  </diagram>
</mxfile>
